<?xml version="1.0" encoding="UTF-8" standalone="no"?>
<svg
   version="1.1"
   width="538.60083pt"
   height="105.57193pt"
   viewBox="0 0 538.60086 105.57194"
   id="svg17"
   xmlns="http://www.w3.org/2000/svg"
   xmlns:svg="http://www.w3.org/2000/svg">
  <defs
     id="defs17" />
  <g
     enable-background="new"
     id="g17"
     style="fill:#f9f9f9"
     transform="translate(-8.476949,-224.99167)">
    <g
       id="Layer-1"
       data-name="Layer"
       style="fill:#f9f9f9">
      <clipPath
         id="cp0">
        <path
           transform="matrix(2.7777777,0,0,-2.7777777,0,555.55557)"
           d="M 0,200 H 200 V 0 H 0 Z"
           id="path1" />
      </clipPath>
      <g
         clip-path="url(#cp0)"
         id="g16"
         style="fill:#f9f9f9">
        <path
           transform="matrix(2.7777777,0,0,-2.7777777,195.58916,330.47138)"
           d="m 0,0 h -0.398 c -2.09,0 -3.748,1.58 -3.748,3.736 0,2.285 1.784,4.101 4.033,4.101 1.147,0 1.816,-0.319 2.055,-0.421 V 6.246 H 1.851 c -0.613,0.466 -1.259,0.75 -2.385,0.75 -0.511,0 -0.988,-0.091 -1.17,-0.171 C -2.636,6.371 -3.01,5.134 -3.01,4.122 c 0,-1.759 1.079,-3.281 3.179,-3.281 0.728,0 1.228,0.341 1.705,0.636 H 1.999 V 0.636 C 1.182,0.296 0.75,0.137 0,0"
           fill="#231f20"
           id="path2"
           style="fill:#f9f9f9" />
        <path
           transform="matrix(2.7777777,0,0,-2.7777777,222.53278,310.56303)"
           d="m 0,0 c -1.329,0 -2.579,-1.092 -2.579,-3.124 0,-2.147 1.148,-3.384 2.579,-3.384 1.363,0 2.532,1.125 2.532,3.067 C 2.532,-1.147 1.431,0 0,0 m -0.193,-7.19 c -2.079,0 -3.543,1.579 -3.543,3.839 0,2.364 1.645,4.032 3.872,4.032 2.089,0 3.554,-1.556 3.554,-3.827 0,-2.306 -1.691,-4.044 -3.883,-4.044"
           fill="#231f20"
           id="path3"
           style="fill:#f9f9f9" />
        <path
           transform="matrix(2.7777777,0,0,-2.7777777,259.28694,330.5636)"
           d="M 0,0 C -0.284,0.204 -1.567,0.18 -2.397,0.18 L -5.134,0.169 v 0.16 l 0.261,0.567 c 0.034,0.375 0.08,1.18 0.08,1.784 v 2.565 c 0,0.817 -0.011,2.114 -0.217,2.409 v 0.103 h 1.501 V 7.654 C -3.715,7.359 -3.737,6.062 -3.737,5.245 V 0.908 h 1.34 c 0.83,0 2.113,0.057 2.397,0.272 H 0.125 V 0 Z"
           fill="#231f20"
           id="path4"
           style="fill:#f9f9f9" />
        <path
           transform="matrix(2.7777777,0,0,-2.7777777,285.2186,330.5636)"
           d="M 0,0 C -0.284,0.204 -1.566,0.18 -2.396,0.18 L -5.133,0.169 v 0.16 l 0.262,0.567 c 0.033,0.375 0.079,1.18 0.079,1.784 v 2.565 c 0,0.817 -0.013,2.114 -0.217,2.409 V 7.757 H -3.51 V 7.654 C -3.714,7.359 -3.737,6.062 -3.737,5.245 V 0.908 h 1.341 c 0.83,0 2.112,0.057 2.396,0.272 H 0.125 V 0 Z"
           fill="#231f20"
           id="path5"
           style="fill:#f9f9f9" />
        <path
           transform="matrix(2.7777777,0,0,-2.7777777,311.4311,330.5636)"
           d="m 0,0 c -0.282,0.204 -1.566,0.18 -2.395,0.18 h -2.704 v 0.126 c 0.194,0.284 0.217,1.555 0.217,2.374 v 2.565 c 0,0.817 -0.012,2.103 -0.217,2.397 v 0.103 h 2.704 c 0.829,0 2.113,-0.023 2.395,0.181 H 0.127 V 6.758 H 0 c -0.282,0.214 -1.566,0.261 -2.395,0.261 h -1.432 v -2.59 h 1.228 c 0.818,0 2.113,0.022 2.397,0.238 h 0.113 V 3.475 H -0.202 C -0.486,3.679 -1.781,3.702 -2.599,3.702 H -3.827 V 0.908 h 1.432 c 0.829,0 2.113,0.045 2.395,0.26 H 0.127 V 0 Z"
           fill="#231f20"
           id="path6"
           style="fill:#f9f9f9" />
        <path
           transform="matrix(2.7777777,0,0,-2.7777777,341.7886,326.68443)"
           d="M 0,0 V -0.772 L -2.547,-1.363 H -2.92 c -1.942,0 -3.565,1.691 -3.565,3.794 0,2.304 1.804,4.043 4.156,4.043 1.112,0 1.84,-0.32 2.079,-0.421 v -1.17 h -0.091 c -0.604,0.455 -1.295,0.75 -2.431,0.75 -0.534,0 -1.035,-0.091 -1.216,-0.171 -0.953,-0.454 -1.339,-1.578 -1.339,-2.838 0,-1.864 1.043,-3.249 2.78,-3.249 0.479,0 1.103,0.193 1.49,0.317 V 0 c 0,0.817 -0.011,2.136 -0.25,2.407 V 2.509 H 0.204 V 2.407 C 0.01,2.123 0,0.817 0,0"
           fill="#231f20"
           id="path7"
           style="fill:#f9f9f9" />
        <path
           transform="matrix(2.7777777,0,0,-2.7777777,369.45249,330.5636)"
           d="m 0,0 c -0.283,0.204 -1.565,0.18 -2.396,0.18 h -2.702 v 0.126 c 0.192,0.284 0.215,1.555 0.215,2.374 v 2.565 c 0,0.817 -0.013,2.103 -0.215,2.397 v 0.103 h 2.702 c 0.831,0 2.113,-0.023 2.396,0.181 H 0.126 V 6.758 H 0 c -0.283,0.214 -1.565,0.261 -2.396,0.261 h -1.431 v -2.59 h 1.226 c 0.819,0 2.112,0.022 2.397,0.238 h 0.113 V 3.475 H -0.204 C -0.489,3.679 -1.782,3.702 -2.601,3.702 H -3.827 V 0.908 h 1.431 c 0.831,0 2.113,0.045 2.396,0.26 H 0.126 V 0 Z"
           fill="#231f20"
           id="path8"
           style="fill:#f9f9f9" />
        <path
           transform="matrix(2.7777777,0,0,-2.7777777,44.713056,280.4497)"
           d="m 0,0 c -2.409,-1.638 -4.273,-1.799 -7.165,-1.799 -1.253,0 -3.695,0.065 -5.88,0.097 v 0.353 c 0.546,0.804 0.611,4.402 0.611,6.716 v 7.294 c 0,2.315 -0.033,5.944 -0.611,6.779 v 0.29 c 1.51,0 4.402,0.064 5.399,0.064 5.622,0 8.097,-1.512 8.097,-4.692 0,-0.834 -0.225,-1.863 -0.837,-2.763 L -2.667,10.217 C 0.354,9.8 2.731,7.874 2.731,4.98 2.731,3.085 1.832,1.254 0,0 m -6.65,17.929 c -0.772,0 -1.736,-0.096 -2.796,-0.258 v -7.388 h 4.691 c 1.317,0.802 2.057,2.281 2.057,3.952 0,2.698 -1.254,3.694 -3.952,3.694 M -4.852,8.451 C -6.748,8.451 -8.9,8.032 -9.446,7.969 V 0.29 c 1.381,-0.064 2.635,-0.128 4.273,-0.128 1.285,0 1.992,0.289 2.57,0.481 1.286,0.58 2.217,1.768 2.217,3.471 0,2.281 -1.027,4.337 -4.466,4.337"
           fill="#231f20"
           id="path9"
           style="fill:#f9f9f9" />
        <path
           transform="matrix(2.7777777,0,0,-2.7777777,154.97916,246.2661)"
           d="m 0,0 -2.154,-3.824 c -0.289,-0.513 -0.931,-1.637 -1.412,-2.505 v -0.45 c 0,-2.312 0.064,-6.104 0.61,-6.908 v -0.354 h -4.21 v 0.354 c 0.546,0.804 0.611,4.562 0.611,6.875 v 0.483 l -3.791,6.426 c -1.639,2.763 -3.438,5.912 -4.98,7.037 v 0.29 h 5.238 v -0.29 c -0.065,-0.224 -0.13,-0.354 -0.13,-0.901 0,-0.481 1.22,-3.115 4.241,-7.967 l 1.382,-2.218 1.22,2.185 c 2.122,3.759 3.985,7.037 3.985,8.098 0,0.321 -0.031,0.61 -0.095,0.803 v 0.29 H 4.852 V 7.134 C 3.406,6.009 1.799,3.15 0,0"
           fill="#231f20"
           id="path10"
           style="fill:#f9f9f9" />
        <path
           transform="matrix(2.7777777,0,0,-2.7777777,229.6522,244.47832)"
           d="m 0,0 v -9.705 c 0,-1.285 0,-2.922 0.129,-4.882 v -0.354 h -2.185 v 0.226 c -0.418,0.769 -1.639,2.279 -2.762,3.694 -3.921,4.981 -6.522,8.065 -10.283,12.564 v -9.447 c 0,-2.057 0.258,-5.623 0.899,-6.426 v -0.354 h -3.984 v 0.354 c 0.579,0.803 0.932,4.049 0.932,6.426 V 3.952 c -1.158,1.414 -1.863,2.056 -2.345,2.411 V 6.78 h 4.209 c 0.354,-0.612 1.767,-2.443 2.956,-3.921 3.824,-4.851 6.876,-8.45 10.282,-12.53 V 0 c 0,2.057 -0.322,5.623 -0.964,6.427 V 6.78 h 4.05 V 6.427 C 0.354,5.623 0,2.377 0,0"
           fill="#231f20"
           id="path11"
           style="fill:#f9f9f9" />
        <path
           transform="matrix(2.7777777,0,0,-2.7777777,319.94639,285.2675)"
           d="M 0,0 V 0.354 C 0.417,0.932 0.481,2.7 0.481,4.5 c 0,0.897 0,1.829 -0.032,2.602 L 0.097,16.998 -4.499,7.167 C -5.655,4.724 -7.134,1.96 -7.134,0.547 V 0.321 h -2.634 v 0.322 c 0,0.74 -1.415,4.047 -2.409,6.329 l -4.178,9.897 -0.836,-9.702 c -0.128,-1.288 -0.288,-2.925 -0.32,-4.307 0,-1.092 0.095,-2.153 0.352,-2.506 V 0 h -3.695 v 0.354 c 0.644,0.803 1.254,4.37 1.511,6.748 l 0.706,7.26 c 0.097,1.286 0.354,3.76 0.354,5.239 -0.321,0.513 -0.706,1.091 -1.028,1.573 v 0.289 h 4.081 v -0.321 c 0.355,-1.157 2.281,-5.366 3.084,-7.229 l 4.113,-9.413 4.531,9.318 c 1.092,2.247 2.603,5.331 3.053,6.425 v 1.22 H 3.47 V 21.174 C 2.922,20.533 2.922,18.925 2.922,16.965 c 0,-0.737 0.033,-2.056 0.066,-2.603 L 3.31,7.102 C 3.374,4.659 3.598,1.157 4.146,0.354 V 0 Z"
           fill="#231f20"
           id="path12"
           style="fill:#f9f9f9" />
        <path
           transform="matrix(2.7777777,0,0,-2.7777777,388.79389,285.2675)"
           d="m 0,0 v 0.29 c 0.097,0.223 0.191,0.546 0.161,0.899 0,1.285 -0.642,3.245 -2.347,7.519 h -8 c -1.253,-2.957 -2.538,-6.202 -2.571,-7.615 -0.032,-0.322 0.033,-0.58 0.098,-0.803 V 0 h -4.146 v 0.29 c 1.318,1.156 2.731,4.465 3.952,7.325 l 5.88,13.88 h 2.764 L 1.349,7.551 C 2.441,4.82 3.694,1.446 5.044,0.29 V 0 Z m -6.074,18.346 -3.308,-7.711 h 6.424 z"
           fill="#231f20"
           id="path13"
           style="fill:#f9f9f9" />
        <path
           transform="matrix(2.7777777,0,0,-2.7777777,476.67637,247.24805)"
           d="M 0,0 -4.788,-13.687 H -6.94 l -4.788,15.648 -5.623,-15.648 h -2.154 l -4.207,13.913 c -0.804,2.634 -1.671,6.104 -2.924,7.262 v 0.289 h 4.853 V 7.488 c -0.129,-0.258 -0.259,-0.579 -0.259,-0.932 0,-1.35 0.353,-3.118 1.928,-8.452 l 2.218,-7.614 2.923,8.13 c 1.574,4.434 2.12,6.007 2.12,7.872 0,0.384 -0.062,0.772 -0.16,0.996 v 0.289 h 3.504 V 7.488 C -9.639,7.23 -9.736,6.846 -9.736,6.587 c 0,-1.767 0.353,-2.987 2.057,-8.546 l 2.248,-7.454 3.439,10.088 c 0.708,2.057 1.511,4.691 1.511,5.752 0,0.322 -0.097,0.837 -0.193,1.061 V 7.777 H 3.437 V 7.488 C 2.248,6.33 1.026,2.988 0,0"
           fill="#231f20"
           id="path14"
           style="fill:#f9f9f9" />
        <path
           transform="matrix(2.7777777,0,0,-2.7777777,91.20694,272.39723)"
           d="m 0,0 c 0.742,-0.954 1.892,-2.5 3.425,-3.559 1.785,-1.234 3.059,-1.224 3.606,-1.265 0.59,-0.041 1.748,0.02 1.748,0.02 V -4.45 C 7.527,-3.68 5.23,-2.21 3.084,0.691 0.938,3.595 0.02,5.177 0.02,5.177 l 3.116,2.089 c 0.739,0.964 1.415,2.346 1.415,3.502 0,4.146 -3.086,6.298 -8.739,6.298 -1.8,0 -4.241,-0.096 -5.785,-0.129 v -0.288 c 0.578,-0.835 0.611,-4.466 0.611,-6.781 V 2.576 c 0,-2.315 -0.064,-5.946 -0.611,-6.748 v -0.353 h 4.21 v 0.353 C -6.31,-3.37 -6.374,0.261 -6.374,2.576 v 1.252 l 3.246,0.482 0.941,-1.359 z m -3.128,5.949 h -3.246 v 8.965 c 1.061,0.16 2.056,0.256 2.893,0.256 3.308,0 4.852,-1.092 4.852,-3.887 0,-4.049 -2.508,-5.109 -4.499,-5.334"
           fill="#231f20"
           id="path15"
           style="fill:#f9f9f9" />
        <path
           transform="matrix(2.7777777,0,0,-2.7777777,522.68887,272.39723)"
           d="m 0,0 c 0.741,-0.954 1.891,-2.5 3.425,-3.559 1.783,-1.234 3.057,-1.224 3.604,-1.265 0.591,-0.041 1.751,0.02 1.751,0.02 V -4.45 C 7.525,-3.68 5.229,-2.21 3.082,0.691 0.937,3.595 0.02,5.177 0.02,5.177 l 3.116,2.089 c 0.738,0.964 1.413,2.346 1.413,3.502 0,4.146 -3.084,6.298 -8.738,6.298 -1.8,0 -4.242,-0.096 -5.786,-0.129 v -0.288 c 0.579,-0.835 0.611,-4.466 0.611,-6.781 V 2.576 c 0,-2.315 -0.064,-5.946 -0.611,-6.748 v -0.353 h 4.21 v 0.353 c -0.546,0.802 -0.61,4.433 -0.61,6.748 v 1.252 l 3.243,0.482 0.944,-1.359 z m -3.132,5.949 h -3.243 v 8.965 c 1.061,0.16 2.057,0.256 2.892,0.256 3.308,0 4.852,-1.092 4.852,-3.887 0,-4.049 -2.507,-5.109 -4.501,-5.334"
           fill="#231f20"
           id="path16"
           style="fill:#f9f9f9" />
      </g>
    </g>
  </g>
</svg>
